<svg width="187" height="24" viewBox="0 0 187 24" fill="none" xmlns="http://www.w3.org/2000/svg">
<path d="M174.279 6.10653H166.638C165.35 6.19239 165.006 6.4929 165.006 8.03839V12.3314H174.279V6.10653ZM178.315 2.6721V21.3897H174.279V15.9805H165.006V21.3468H160.928V6.70755C160.928 4.13173 161.958 2.6721 165.006 2.6721H178.315ZM156.85 6.70755V16.8391C156.85 20.0589 155.047 21.3897 152.771 21.3897H139.935V2.6721H152.814C156.249 2.6721 156.85 4.86155 156.85 6.70755ZM152.728 7.82374C152.728 6.79341 152.084 6.10653 151.011 6.10653H144.013V17.7836H151.011C152.599 17.6977 152.728 16.7533 152.728 15.9805V7.82374ZM57.1223 2.6721H61.2007V10.0561H70.302V2.6721H74.3803V21.3468H70.302V13.7052H61.2007V21.3468H57.1223V2.6721ZM81.3351 2.6721L86.4008 10.3137L91.4237 2.6721H96.3607L88.4615 14.6067V21.3468H84.3831V14.6067L76.3981 2.6721H81.3351ZM119.2 2.6721H132.293C134.139 2.6721 135.985 2.92968 135.9 6.70755V21.3468H131.821V8.03839C131.821 6.44997 131.649 6.10653 130.362 6.10653H123.235V21.3897H119.157V2.6721H119.2ZM186.472 21.3468H182.393V2.6721H186.472V21.3468ZM98.4214 21.3468H111.515C114.134 21.3468 115.207 20.5741 115.121 16.8391V2.6721H111.043V16.0234C111.043 17.6119 110.828 17.8265 109.583 17.8265H102.457V2.6721H98.3784V21.3468H98.4214ZM40.6371 3.74536C39.478 3.14433 38.233 2.62917 36.988 2.15693C31.3641 0.225067 24.7528 -0.461818 18.485 0.310928C12.6894 1.1266 7.06554 2.50038 2.68664 6.4929C0.583051 8.4677 -0.661929 11.387 0.3684 14.2204C1.69924 17.6548 5.26246 19.9301 8.48224 21.2609C17.9269 25.0817 30.806 24.953 39.9502 20.5741C43.0841 18.9856 46.6044 16.3669 47.0337 12.589C47.3772 8.51063 43.8139 5.46257 40.6371 3.74536ZM19.4724 5.37671C20.2452 3.83122 21.6619 2.02814 23.5937 1.98521C27.8009 1.94228 31.7076 2.58624 35.4854 3.61657C35.7001 3.74536 35.9577 3.78829 36.1294 4.00294C36.2582 4.26052 36.0006 4.43224 35.8718 4.60396C32.7808 7.00806 29.2605 8.38183 25.6115 9.54095C23.7654 9.97026 21.9194 10.7859 19.8588 10.3566C19.3866 10.2278 18.9572 9.92733 18.6997 9.45509C18.1845 8.03839 18.8714 6.57876 19.4724 5.37671ZM6.97968 17.9553C6.50744 18.3846 6.03521 17.8265 5.6059 17.6119C3.41646 16.1522 1.44166 13.834 1.99975 11.0864C2.90129 7.52323 6.5933 5.59136 9.68429 4.30345C11.4874 3.61657 13.4192 3.05847 15.394 2.75796C15.6087 2.75796 15.8663 2.71503 15.9951 2.92968L15.9521 3.14433C12.0025 7.60909 9.42671 12.8037 6.97968 17.9553ZM27.0282 19.6725C26.1266 21.0463 24.667 22.2483 22.8639 22.0766C18.8714 22.0337 14.9647 21.3897 11.3586 20.3165C11.1869 20.2735 11.0151 20.1877 10.9293 20.016C10.8434 19.8013 10.9722 19.6296 11.101 19.4579C14.4066 16.7962 18.3133 15.5512 22.22 14.2633C23.6796 13.834 25.2251 13.4047 26.8564 13.6193C27.5433 13.6623 28.1873 14.1345 28.4449 14.7785C28.7883 16.6245 27.8438 18.17 27.0282 19.6725ZM45.016 12.9754C44.0715 16.6674 40.079 18.6422 36.8592 19.8872C35.0991 20.4882 33.3389 21.0892 31.45 21.2609C31.3212 21.2609 31.1495 21.2609 31.1065 21.0892L31.1495 20.8746C33.8541 17.8265 35.9147 14.3921 37.7178 10.9147C38.5335 9.3263 39.3492 7.73788 40.0361 6.14946C40.1219 6.02067 40.2507 5.97774 40.3795 5.9348C41.0235 5.97774 41.4957 6.4929 42.0538 6.87927C43.8998 8.38183 45.5741 10.4854 45.016 12.9754Z" fill="white"/>
</svg>
